<?xml version="1.0" encoding="utf-8"?>
<!-- Generator: Adobe Illustrator 16.0.0, SVG Export Plug-In . SVG Version: 6.00 Build 0)  -->
<!DOCTYPE svg PUBLIC "-//W3C//DTD SVG 1.1//EN" "http://www.w3.org/Graphics/SVG/1.1/DTD/svg11.dtd">
<svg version="1.1" id="Layer_1" xmlns="http://www.w3.org/2000/svg" xmlns:xlink="http://www.w3.org/1999/xlink" x="0px" y="0px"
	 width="241.841px" height="70.108px" viewBox="0 0 241.841 70.108" enable-background="new 0 0 241.841 70.108"
	 xml:space="preserve">
<g>
	<g>
		<g>
			<g>
				<g>
					<path d="M56.672,26.892c-7.309,0-13.254-5.945-13.254-13.253S49.364,0.386,56.672,0.386c7.307,0,13.252,5.945,13.252,13.253
						S63.979,26.892,56.672,26.892z M56.672,1.354c-6.775,0-12.286,5.511-12.286,12.285c0,6.775,5.511,12.286,12.286,12.286
						c6.773,0,12.285-5.511,12.285-12.286C68.958,6.864,63.446,1.354,56.672,1.354z"/>
				</g>
				<g>
					<g>
						<g>
							<path d="M50.885,15.56c-1.06,0-1.922-0.861-1.922-1.921s0.862-1.922,1.922-1.922c1.059,0,1.922,0.862,1.922,1.922
								S51.944,15.56,50.885,15.56z M50.885,12.684c-0.527,0-0.955,0.428-0.955,0.955s0.428,0.955,0.955,0.955
								c0.525,0,0.953-0.428,0.953-0.955S51.411,12.684,50.885,12.684z"/>
						</g>
						<g>
							<path d="M61.672,15.56c-1.061,0-1.922-0.861-1.922-1.921s0.861-1.922,1.922-1.922c1.06,0,1.922,0.862,1.922,1.922
								S62.732,15.56,61.672,15.56z M61.672,12.684c-0.526,0-0.955,0.428-0.955,0.955s0.429,0.955,0.955,0.955
								c0.527,0,0.955-0.428,0.955-0.955S62.2,12.684,61.672,12.684z"/>
						</g>
					</g>
					<g>
						<g>
							<path d="M56.672,20.955c-1.062,0-1.924-0.863-1.924-1.923c0-1.06,0.862-1.921,1.924-1.921c1.059,0,1.921,0.862,1.921,1.921
								C58.593,20.092,57.731,20.955,56.672,20.955z M56.672,18.078c-0.527,0-0.955,0.427-0.955,0.954
								c0,0.527,0.428,0.956,0.955,0.956c0.525,0,0.953-0.429,0.953-0.956C57.625,18.505,57.198,18.078,56.672,18.078z"/>
						</g>
						<g>
							<path d="M56.672,10.167c-1.062,0-1.924-0.863-1.924-1.922c0-1.059,0.862-1.921,1.924-1.921c1.059,0,1.921,0.863,1.921,1.921
								C58.593,9.304,57.731,10.167,56.672,10.167z M56.672,7.291c-0.527,0-0.955,0.428-0.955,0.954
								c0,0.527,0.428,0.955,0.955,0.955c0.525,0,0.953-0.428,0.953-0.955C57.625,7.719,57.198,7.291,56.672,7.291z"/>
						</g>
					</g>
				</g>
			</g>
			<g>
				<path d="M26.82,26.892c-0.001,0-0.003,0-0.003,0L2.045,26.851c-1.07-0.002-1.449-0.489-1.578-0.779
					c-0.131-0.29-0.242-0.896,0.469-1.696L12.864,13.11c2.16-2.245,5.645-6.33,5.729-7.664c0.045-0.748-0.184-1.43-0.645-1.92
					c-0.461-0.489-1.113-0.748-1.888-0.748c-1.621,0-2.208,0.858-2.298,1.19c-0.207,0.775,0.084,1.12,0.097,1.133
					c0.172,0.196,0.163,0.5-0.027,0.678c-0.189,0.178-0.481,0.18-0.665-0.004c-0.072-0.071-0.692-0.737-0.338-2.059
					c0.178-0.66,1.082-1.907,3.231-1.907c1.034,0,1.954,0.374,2.593,1.053c0.646,0.688,0.967,1.626,0.904,2.643
					c-0.133,2.125-5.41,7.666-6.012,8.291L1.629,25.049c-0.246,0.28-0.324,0.528-0.28,0.627s0.282,0.206,0.698,0.207l24.77,0.041
					c0.002,0,0.002,0,0.003,0c0.389,0,0.673-0.101,0.761-0.271c0.087-0.166,0.012-0.448-0.203-0.759l-9.925-11.209
					c-0.177-0.2-0.159-0.506,0.041-0.683c0.201-0.178,0.507-0.158,0.683,0.042l9.943,11.23c0.013,0.013,0.023,0.026,0.033,0.042
					c0.608,0.861,0.441,1.488,0.287,1.784C28.286,26.395,27.872,26.892,26.82,26.892z"/>
			</g>
			<g>
				<g>
					<path d="M15.151,67.891c-2.068,0-3.75-1.683-3.75-3.75c0-2.066,1.682-3.748,3.75-3.748c2.066,0,3.748,1.682,3.748,3.748
						C18.899,66.208,17.217,67.891,15.151,67.891z M15.151,61.361c-1.534,0-2.782,1.246-2.782,2.779s1.248,2.782,2.782,2.782
						c1.533,0,2.781-1.249,2.781-2.782S16.684,61.361,15.151,61.361z"/>
				</g>
				<g>
					<path d="M22.459,60.961c-2.066,0-3.748-1.682-3.748-3.748s1.682-3.749,3.748-3.749c2.067,0,3.748,1.683,3.748,3.749
						S24.527,60.961,22.459,60.961z M22.459,54.432c-1.533,0-2.781,1.247-2.781,2.781c0,1.533,1.248,2.781,2.781,2.781
						c1.534,0,2.781-1.248,2.781-2.781C25.241,55.679,23.994,54.432,22.459,54.432z"/>
				</g>
				<g>
					<path d="M14.563,69.723c-0.219,0-0.416-0.148-0.471-0.371l-0.484-2.018c-0.062-0.26,0.099-0.521,0.357-0.583
						c0.26-0.062,0.521,0.098,0.584,0.357l0.484,2.019c0.062,0.259-0.098,0.52-0.357,0.582C14.638,69.718,14.6,69.723,14.563,69.723
						z"/>
				</g>
				<g>
					<path d="M14.462,61.433c-0.223,0.001-0.423-0.154-0.473-0.38l-1.132-5.209L6.597,43.82c-0.124-0.237-0.032-0.53,0.205-0.652
						c0.237-0.125,0.528-0.032,0.652,0.205l6.291,12.08c0.021,0.039,0.035,0.08,0.044,0.121l1.146,5.272
						c0.057,0.261-0.109,0.519-0.371,0.575C14.531,61.43,14.497,61.433,14.462,61.433z"/>
				</g>
				<g>
					<path d="M19.244,57.155c-0.026,0-0.054-0.001-0.081-0.006l-5.926-0.995c-0.027-0.005-0.055-0.012-0.082-0.021L0.321,51.561
						c-0.251-0.089-0.383-0.365-0.292-0.617c0.089-0.252,0.366-0.383,0.617-0.293l12.793,4.557l5.885,0.988
						c0.263,0.045,0.441,0.293,0.396,0.557C19.68,56.988,19.475,57.155,19.244,57.155z"/>
				</g>
			</g>
			<g>
				<circle fill="#FFFFFF" cx="13.407" cy="55.865" r="0.771"/>
				<path d="M13.407,56.879c-0.559,0-1.012-0.455-1.012-1.014s0.453-1.012,1.012-1.012s1.013,0.453,1.013,1.012
					S13.965,56.879,13.407,56.879z M13.407,55.337c-0.292,0-0.529,0.237-0.529,0.528s0.237,0.529,0.529,0.529
					c0.291,0,0.529-0.238,0.529-0.529S13.698,55.337,13.407,55.337z"/>
			</g>
			<g>
				<path d="M69.668,69.723H43.674c-0.268,0-0.484-0.217-0.484-0.484v-21.32c0-0.267,0.217-0.483,0.484-0.483h2.255
					c0.267,0,0.483,0.217,0.483,0.483v15.191l7.336-3.401c0.15-0.069,0.324-0.058,0.463,0.031s0.224,0.242,0.224,0.407v2.904
					l6.903-3.773c0.15-0.082,0.333-0.08,0.479,0.008c0.147,0.086,0.238,0.244,0.238,0.416v3.377l7.377-3.758
					c0.15-0.076,0.328-0.07,0.473,0.018c0.143,0.088,0.23,0.242,0.231,0.411l0.016,9.489C70.152,69.506,69.935,69.723,69.668,69.723
					z M44.159,68.756h25.025l-0.013-8.217l-7.38,3.76c-0.15,0.076-0.329,0.068-0.473-0.02c-0.143-0.088-0.23-0.244-0.23-0.412
					l-0.001-3.351l-6.903,3.774c-0.15,0.082-0.332,0.08-0.479-0.008c-0.146-0.087-0.237-0.245-0.237-0.416v-2.963l-7.334,3.402
					c-0.15,0.068-0.325,0.057-0.465-0.032c-0.139-0.089-0.224-0.241-0.224-0.407V48.402h-1.286V68.756z"/>
			</g>
		</g>
		<rect x="85.152" fill="#EF909F" width="15.25" height="70.108"/>
	</g>
	<g>
		<path d="M117.805,27.386V8.216h1.89v17.496h11.07v1.674H117.805z"/>
		<path d="M138.595,27.656c-1.026,0-1.963-0.194-2.809-0.581s-1.58-0.913-2.2-1.58c-0.621-0.666-1.103-1.44-1.444-2.322
			c-0.343-0.882-0.514-1.809-0.514-2.781c0-0.99,0.176-1.926,0.527-2.808c0.351-0.882,0.836-1.656,1.457-2.322
			c0.621-0.666,1.354-1.197,2.201-1.593c0.846-0.396,1.772-0.594,2.781-0.594c1.008,0,1.939,0.198,2.794,0.594
			s1.593,0.927,2.214,1.593c0.621,0.666,1.107,1.44,1.458,2.322s0.526,1.818,0.526,2.808c0,0.972-0.171,1.899-0.513,2.781
			c-0.343,0.882-0.823,1.656-1.444,2.322c-0.621,0.667-1.359,1.193-2.215,1.58C140.561,27.462,139.621,27.656,138.595,27.656z
			 M133.492,20.42c0,0.792,0.135,1.525,0.404,2.2c0.271,0.675,0.635,1.269,1.094,1.782c0.459,0.513,1,0.914,1.621,1.201
			c0.62,0.289,1.281,0.432,1.984,0.432c0.701,0,1.363-0.148,1.984-0.445s1.165-0.702,1.633-1.215
			c0.469-0.513,0.838-1.111,1.107-1.795c0.27-0.684,0.404-1.421,0.404-2.214c0-0.774-0.135-1.507-0.404-2.201
			c-0.27-0.692-0.639-1.296-1.107-1.809c-0.468-0.513-1.012-0.918-1.633-1.215c-0.621-0.297-1.283-0.445-1.984-0.445
			c-0.703,0-1.359,0.148-1.972,0.445c-0.612,0.297-1.151,0.707-1.62,1.229c-0.468,0.522-0.837,1.13-1.107,1.823
			C133.626,18.886,133.492,19.628,133.492,20.42z"/>
		<path d="M154.308,27.575c-0.973,0-1.859-0.203-2.66-0.607c-0.801-0.405-1.494-0.94-2.078-1.606
			c-0.586-0.666-1.039-1.431-1.363-2.295c-0.324-0.864-0.486-1.755-0.486-2.673c0-0.972,0.157-1.903,0.473-2.794
			c0.314-0.891,0.76-1.669,1.336-2.335c0.576-0.666,1.265-1.197,2.066-1.593c0.801-0.396,1.688-0.594,2.658-0.594
			c1.207,0,2.25,0.302,3.133,0.905c0.882,0.603,1.638,1.363,2.268,2.281v-2.943h1.647V27.44c0,0.972-0.185,1.831-0.554,2.578
			s-0.863,1.373-1.484,1.876s-1.351,0.882-2.188,1.134c-0.837,0.252-1.724,0.378-2.66,0.378c-1.619,0-2.925-0.288-3.914-0.864
			c-0.99-0.577-1.791-1.35-2.403-2.322l1.134-0.891c0.559,0.9,1.297,1.562,2.215,1.985c0.918,0.422,1.907,0.634,2.969,0.634
			c0.685,0,1.332-0.095,1.945-0.284c0.611-0.189,1.146-0.468,1.605-0.837c0.459-0.369,0.824-0.837,1.094-1.404
			s0.405-1.229,0.405-1.984v-2.781c-0.54,0.9-1.278,1.611-2.214,2.133C156.315,27.314,155.333,27.575,154.308,27.575z
			 M154.822,26.036c0.539,0,1.07-0.099,1.592-0.297c0.522-0.198,0.995-0.463,1.418-0.796s0.778-0.707,1.066-1.121
			s0.477-0.837,0.567-1.269v-4.347c-0.198-0.503-0.468-0.972-0.81-1.404c-0.343-0.432-0.729-0.801-1.162-1.107
			c-0.432-0.306-0.895-0.549-1.391-0.729c-0.494-0.18-0.994-0.27-1.498-0.27c-0.792,0-1.498,0.167-2.119,0.5s-1.147,0.77-1.58,1.31
			c-0.432,0.54-0.76,1.152-0.985,1.836s-0.337,1.377-0.337,2.079c0,0.756,0.135,1.476,0.404,2.16
			c0.271,0.685,0.644,1.283,1.121,1.795c0.477,0.513,1.029,0.918,1.66,1.215C153.399,25.888,154.083,26.036,154.822,26.036z"/>
		<path d="M165.351,10.376v-2.7h1.836v2.7H165.351z M165.351,27.386V13.319h1.836v14.067H165.351z"/>
		<path d="M183.063,27.386h-1.836v-7.857c0-1.674-0.247-2.889-0.743-3.645c-0.494-0.756-1.255-1.134-2.281-1.134
			c-0.539,0-1.08,0.1-1.619,0.297c-0.541,0.198-1.04,0.477-1.499,0.837c-0.459,0.36-0.868,0.788-1.229,1.282
			c-0.36,0.496-0.621,1.031-0.783,1.607v8.613h-1.836V13.319h1.675v3.186c0.575-1.026,1.398-1.854,2.47-2.484
			c1.071-0.629,2.236-0.945,3.497-0.945c0.773,0,1.431,0.145,1.971,0.432c0.539,0.288,0.972,0.693,1.296,1.215
			c0.323,0.522,0.558,1.161,0.702,1.917c0.144,0.756,0.216,1.593,0.216,2.511V27.386z"/>
		<path d="M210.845,13.319h1.81l-6.048,14.067h-1.512l-3.024-7.182l-2.997,7.182h-1.512l-6.049-14.067h1.783l5.129,12.177
			l2.674-6.426l-2.403-5.724h1.539l1.836,4.59l1.836-4.59h1.565l-2.402,5.724l2.673,6.426L210.845,13.319z"/>
		<path d="M215.083,10.376v-2.7h1.836v2.7H215.083z M215.083,27.386V13.319h1.836v14.067H215.083z"/>
		<path d="M227.72,26.711c-0.108,0.054-0.266,0.126-0.473,0.216c-0.207,0.09-0.445,0.18-0.716,0.27
			c-0.271,0.09-0.576,0.171-0.918,0.243c-0.343,0.071-0.702,0.108-1.08,0.108c-0.396,0-0.774-0.054-1.134-0.162
			c-0.36-0.108-0.676-0.274-0.945-0.5c-0.27-0.225-0.486-0.508-0.648-0.851c-0.161-0.342-0.242-0.738-0.242-1.188V14.777h-1.944
			v-1.458h1.944V8.567h1.836v4.752h3.24v1.458h-3.24v9.558c0.035,0.522,0.221,0.904,0.553,1.147
			c0.334,0.243,0.717,0.364,1.148,0.364c0.521,0,0.98-0.085,1.377-0.256c0.396-0.171,0.648-0.292,0.756-0.365L227.72,26.711z"/>
		<path d="M241.841,27.386h-1.836v-7.857c0-1.602-0.275-2.799-0.824-3.591c-0.549-0.792-1.354-1.188-2.416-1.188
			c-0.522,0-1.04,0.104-1.553,0.311c-0.514,0.208-0.995,0.491-1.445,0.851c-0.449,0.36-0.841,0.783-1.174,1.269
			c-0.334,0.486-0.58,1.017-0.742,1.593v8.613h-1.836V7.676h1.836v8.829c0.558-1.062,1.332-1.899,2.322-2.511
			c0.989-0.612,2.061-0.918,3.213-0.918c0.81,0,1.493,0.148,2.052,0.446c0.558,0.297,1.017,0.711,1.377,1.242
			c0.36,0.531,0.62,1.17,0.782,1.917c0.162,0.747,0.244,1.571,0.244,2.471V27.386z"/>
		<path d="M131.414,42.29h-6.832v17.496h-1.89V42.29h-6.831v-1.674h15.553V42.29z"/>
		<path d="M132.115,50.066c0-1.152,0.203-2.299,0.607-3.443c0.405-1.143,0.994-2.164,1.769-3.064c0.774-0.899,1.728-1.633,2.862-2.2
			c1.134-0.567,2.42-0.851,3.861-0.851c1.709,0,3.172,0.388,4.387,1.161c1.215,0.774,2.111,1.782,2.688,3.024l-1.486,0.918
			c-0.306-0.63-0.679-1.161-1.119-1.594c-0.441-0.432-0.914-0.782-1.418-1.053c-0.504-0.27-1.026-0.463-1.566-0.58
			c-0.539-0.117-1.07-0.176-1.593-0.176c-1.152,0-2.169,0.234-3.051,0.702s-1.625,1.08-2.228,1.836
			c-0.604,0.756-1.058,1.606-1.363,2.552c-0.307,0.945-0.459,1.903-0.459,2.875c0,1.062,0.184,2.079,0.553,3.051
			c0.369,0.973,0.873,1.832,1.512,2.579s1.396,1.341,2.269,1.782s1.823,0.661,2.849,0.661c0.54,0,1.094-0.067,1.66-0.202
			c0.567-0.135,1.116-0.352,1.647-0.648c0.53-0.297,1.021-0.666,1.472-1.107c0.449-0.44,0.827-0.976,1.134-1.605l1.565,0.81
			c-0.306,0.72-0.738,1.354-1.295,1.903c-0.559,0.549-1.18,1.013-1.863,1.391c-0.685,0.378-1.409,0.666-2.174,0.864
			c-0.766,0.198-1.517,0.297-2.254,0.297c-1.314,0-2.521-0.288-3.619-0.864s-2.043-1.327-2.834-2.254
			c-0.793-0.928-1.409-1.98-1.85-3.16C132.335,52.492,132.115,51.291,132.115,50.066z"/>
		<path d="M166.324,54.846c0,0.72-0.145,1.381-0.432,1.984c-0.289,0.604-0.676,1.125-1.162,1.565
			c-0.485,0.441-1.053,0.783-1.701,1.026c-0.647,0.242-1.34,0.364-2.078,0.364h-9.045v-19.17h9.234c0.665,0,1.268,0.144,1.809,0.433
			c0.539,0.287,0.998,0.66,1.377,1.119c0.378,0.459,0.67,0.982,0.877,1.566c0.207,0.586,0.311,1.175,0.311,1.769
			c0,0.972-0.242,1.858-0.729,2.659c-0.486,0.802-1.161,1.4-2.025,1.796c1.098,0.324,1.967,0.927,2.605,1.81
			C166.003,52.649,166.324,53.676,166.324,54.846z M153.795,42.264v7.073h6.588c0.468,0,0.905-0.099,1.31-0.297
			c0.405-0.198,0.752-0.459,1.039-0.782c0.288-0.324,0.514-0.698,0.676-1.121s0.242-0.868,0.242-1.336
			c0-0.486-0.076-0.945-0.229-1.377c-0.154-0.433-0.369-0.807-0.648-1.121s-0.607-0.566-0.985-0.756s-0.792-0.283-1.242-0.283
			H153.795z M164.433,54.521c0-0.469-0.08-0.922-0.242-1.363s-0.393-0.828-0.689-1.162c-0.297-0.332-0.647-0.603-1.053-0.81
			c-0.404-0.206-0.842-0.311-1.309-0.311h-7.345v7.263h7.155c0.486,0,0.939-0.098,1.363-0.297c0.423-0.197,0.792-0.463,1.107-0.797
			c0.314-0.332,0.562-0.719,0.742-1.16S164.433,54.989,164.433,54.521z"/>
		<path d="M169.886,59.786v-19.17h1.891v17.496h11.07v1.674H169.886z"/>
	</g>
</g>
</svg>
